<svg width="422" height="422" viewBox="0 0 422 422" fill="none" xmlns="http://www.w3.org/2000/svg">
<g filter="url(#filter0_f_70_6045)">
<path d="M232.941 209.59L246.331 219.321L266.62 234.062H241.539H224.986L219.877 249.801L212.128 273.658L204.371 249.801L199.262 234.062H182.709H157.628L177.918 219.321L191.307 209.59L186.19 193.844L178.441 169.994L198.731 184.735L212.128 194.466L225.517 184.735L245.807 169.994L238.058 193.844L232.941 209.59ZM338.204 163.766L264.66 182.803L289.139 107.462L223.514 155.147V76.7692H200.734V155.147L135.109 107.462L159.857 183.639L83.0861 163.766L77.375 185.818L153.99 205.655L87.5092 253.962H167.486L118.959 315.461L136.85 329.573L186.735 266.354L212.128 344.498L237.739 265.661L280.795 330.818L299.804 318.257L257.314 253.962H336.739L269.479 205.089L343.915 185.818L338.204 163.766Z" fill="#8BAB4F"/>
</g>
<defs>
<filter id="filter0_f_70_6045" x="-15" y="-15" width="451.273" height="451.275" filterUnits="userSpaceOnUse" color-interpolation-filters="sRGB">
<feFlood flood-opacity="0" result="BackgroundImageFix"/>
<feBlend mode="normal" in="SourceGraphic" in2="BackgroundImageFix" result="shape"/>
<feGaussianBlur stdDeviation="7.5" result="effect1_foregroundBlur_70_6045"/>
</filter>
</defs>
</svg>
