<svg width="422" height="422" viewBox="0 0 422 422" fill="none" xmlns="http://www.w3.org/2000/svg">
<g filter="url(#filter0_f_70_6088)">
<mask id="mask0_70_6088" style="mask-type:luminance" maskUnits="userSpaceOnUse" x="0" y="0" width="422" height="423">
<path d="M0.710938 0.727997H421.989V422.006H0.710938V0.727997Z" fill="white"/>
</mask>
<g mask="url(#mask0_70_6088)">
<path d="M253.621 215.676C262.516 219.703 270.74 224.94 278.064 231.21V231.217L227.521 281.754L253.621 215.676ZM144.727 231.267C152.038 224.989 160.254 219.752 169.129 215.726L195.207 281.754L144.727 231.267ZM205.058 206.809V274.903L180.02 211.501C187.989 208.939 196.382 207.339 205.058 206.809ZM242.722 211.465L216.742 277.26V206.738C225.759 207.198 234.47 208.818 242.722 211.465ZM346.633 162.641L332.585 176.689C317.773 163.115 300.675 152.005 281.928 143.993L288.51 127.334L277.647 123.046L271.044 139.754C253.981 133.746 235.73 130.243 216.742 129.691V113.676H205.058V129.726C186.411 130.384 168.485 133.873 151.705 139.797L145.088 123.046L134.225 127.334L140.821 144.043C122.095 152.068 105.004 163.179 90.2062 176.753L76.1018 162.641L67.8359 170.9L205.058 308.122V309.057H216.742L286.493 239.306L340.943 184.856L354.892 170.9L346.633 162.641Z" fill="#E97469"/>
</g>
</g>
<defs>
<filter id="filter0_f_70_6088" x="52.8359" y="98.6758" width="317.055" height="225.381" filterUnits="userSpaceOnUse" color-interpolation-filters="sRGB">
<feFlood flood-opacity="0" result="BackgroundImageFix"/>
<feBlend mode="normal" in="SourceGraphic" in2="BackgroundImageFix" result="shape"/>
<feGaussianBlur stdDeviation="7.5" result="effect1_foregroundBlur_70_6088"/>
</filter>
</defs>
</svg>
