<svg width="518" height="518" viewBox="0 0 518 518" fill="none" xmlns="http://www.w3.org/2000/svg">
<g clip-path="url(#clip0_70_6094)" filter="url(#filter0_f_70_6094)">
<mask id="mask0_70_6094" style="mask-type:luminance" maskUnits="userSpaceOnUse" x="0" y="0" width="518" height="518">
<path d="M0.0117188 0.00396729H517.291V517.283H0.0117188V0.00396729Z" fill="white"/>
</mask>
<g mask="url(#mask0_70_6094)">
<path d="M322.354 394.162C307.478 403.391 290.255 407.466 273.04 402.93C249.587 396.778 216.844 365.99 209.771 340.625C206.13 327.565 202.028 313.062 202.028 313.062C202.028 313.062 167.852 317.285 146.614 293.388C125.716 269.865 122.257 244.474 127.01 223.436C147.648 234.933 171.258 240.981 194.885 240.677C198.379 240.624 202.046 240.398 205.018 238.591C208.015 236.81 210.075 232.951 208.745 229.745C207.181 225.913 202.28 225.07 198.231 224.522C176.124 221.603 155.052 211.818 138.411 196.976C140.723 193.57 143.217 190.537 145.806 187.904C149.169 184.489 152.758 181.196 156.607 178.05C174.612 197.176 197.979 211.262 223.37 217.979C226.768 218.883 230.339 219.656 233.754 218.874C237.161 218.101 240.35 215.311 240.48 211.792C240.619 207.447 236.405 204.388 232.738 202.034C214.898 190.485 199.23 175.617 186.769 158.455L186.795 158.429C198.257 152.615 210.874 147.697 224.682 143.795C232.173 157.455 241.566 170.038 252.602 181.057C254.523 182.951 256.547 184.897 259.067 185.932C261.587 186.966 264.672 186.966 266.792 185.271C269.495 183.09 269.634 178.841 268.278 175.66C266.871 172.48 264.316 169.969 262.135 167.266C255.444 158.985 252.02 148.131 252.594 137.53C261.622 136.001 271.059 134.88 280.87 134.176C285.684 146.141 292.349 157.342 300.587 167.301C302.542 169.673 304.749 172.089 307.721 172.975C310.667 173.879 314.499 172.619 315.298 169.621C316.106 166.58 313.595 163.755 311.492 161.392C304.584 153.632 300.135 143.665 298.927 133.307C309.016 133.072 319.495 133.272 330.323 133.915C331.148 136.626 331.948 139.355 332.773 142.057C333.677 145.09 334.607 148.149 336.379 150.747C338.109 153.345 340.863 155.466 344 155.718C349.431 156.126 353.863 150.565 354.245 145.107C354.497 141.918 353.741 138.833 352.62 135.827C367.549 137.478 383.06 139.937 399.136 143.257C394.209 155.752 388.213 172.732 383.121 193.439C380.462 190.016 377.794 186.653 375.135 183.229C373.05 180.535 369.896 177.52 366.732 178.797C363.552 180.049 363.335 184.42 363.995 187.756C365.976 197.941 371.173 207.447 378.516 214.773C377.065 222.42 375.796 230.492 374.762 238.886C373.884 245.856 373.232 252.442 372.702 258.699C366.376 252.364 360.615 245.508 355.54 238.209C353.637 235.489 351.778 232.665 349.032 230.848C346.303 229.015 342.401 228.468 339.803 230.44C336.24 233.16 336.883 238.678 338.317 242.884C343.792 259.142 355.905 272.915 371.086 280.736C370.087 297.351 369.392 311.471 367.158 324.523C351.3 314.296 337.857 300.357 328.394 284.108C325.943 279.954 322.893 275.053 318.096 274.914C313.552 274.775 309.989 279.346 309.676 283.873C309.363 288.392 311.423 292.728 313.595 296.699C324.9 317.207 341.341 334.838 360.928 347.655C356.809 357.909 350.787 367.668 343.418 376.114C320.547 364.365 300.743 346.656 286.561 325.166C284.91 322.646 283.251 320.013 280.852 318.206C278.402 316.39 274.987 315.564 272.354 317.059C269.929 318.458 268.8 321.438 268.921 324.245C269.017 327.035 270.19 329.685 271.372 332.188C282.955 356.614 300.63 378.104 322.354 394.162Z" fill="#526C4E"/>
</g>
</g>
<defs>
<filter id="filter0_f_70_6094" x="-20" y="-20" width="557.277" height="557.275" filterUnits="userSpaceOnUse" color-interpolation-filters="sRGB">
<feFlood flood-opacity="0" result="BackgroundImageFix"/>
<feBlend mode="normal" in="SourceGraphic" in2="BackgroundImageFix" result="shape"/>
<feGaussianBlur stdDeviation="10" result="effect1_foregroundBlur_70_6094"/>
</filter>
<clipPath id="clip0_70_6094">
<rect width="517.276" height="517.276" fill="white"/>
</clipPath>
</defs>
</svg>
