<svg width="227" height="227" viewBox="0 0 227 227" fill="none" xmlns="http://www.w3.org/2000/svg">
<g clip-path="url(#clip0_70_6048)" filter="url(#filter0_f_70_6048)">
<mask id="mask0_70_6048" style="mask-type:luminance" maskUnits="userSpaceOnUse" x="0" y="0" width="227" height="227">
<path d="M0 0.00201416H226.727V226.729H0V0.00201416Z" fill="white"/>
</mask>
<g mask="url(#mask0_70_6048)">
<path d="M112.782 113.55C111.906 128.728 105.69 143.658 94.1265 155.226C82.4641 166.884 67.3853 173.123 52.0742 173.915C52.8512 158.589 59.0671 143.525 70.7485 131.844C81.9195 120.677 96.187 114.56 110.816 113.364C96.187 112.168 81.9195 106.051 70.7485 94.8799C59.0671 83.2024 52.8512 68.1388 52.0742 52.8124C67.3853 53.6047 82.4641 59.8434 94.1265 71.5019C105.69 83.069 111.906 97.9993 112.782 113.177C112.793 113.177 112.805 113.173 112.816 113.173C112.816 113.238 112.805 113.299 112.801 113.364C112.805 113.428 112.816 113.489 112.816 113.554C112.805 113.554 112.793 113.55 112.782 113.55Z" fill="#EF5C71"/>
<path d="M115.906 113.364C130.535 114.56 144.807 120.677 155.978 131.848C167.655 143.525 173.875 158.589 174.648 173.915C159.341 173.123 144.258 166.884 132.596 155.226C121.032 143.658 114.817 128.728 113.941 113.55C113.929 113.55 113.918 113.554 113.906 113.554C113.91 113.489 113.921 113.428 113.925 113.364C113.921 113.299 113.91 113.238 113.906 113.173C113.918 113.173 113.929 113.177 113.941 113.177C114.817 97.9993 121.032 83.069 132.596 71.5019C144.258 59.8434 159.341 53.6047 174.648 52.8124C173.875 68.1388 167.655 83.2024 155.978 94.8799C144.807 106.051 130.535 112.168 115.906 113.364Z" fill="#EF5C71"/>
</g>
</g>
<defs>
<filter id="filter0_f_70_6048" x="-10" y="-10" width="246.727" height="246.725" filterUnits="userSpaceOnUse" color-interpolation-filters="sRGB">
<feFlood flood-opacity="0" result="BackgroundImageFix"/>
<feBlend mode="normal" in="SourceGraphic" in2="BackgroundImageFix" result="shape"/>
<feGaussianBlur stdDeviation="5" result="effect1_foregroundBlur_70_6048"/>
</filter>
<clipPath id="clip0_70_6048">
<rect width="226.725" height="226.725" fill="white"/>
</clipPath>
</defs>
</svg>
