<svg width="112" height="112" viewBox="0 0 112 112" fill="none" xmlns="http://www.w3.org/2000/svg">
<g filter="url(#filter0_f_70_6150)">
<g clip-path="url(#clip0_70_6150)">
<mask id="mask0_70_6150" style="mask-type:luminance" maskUnits="userSpaceOnUse" x="5" y="5" width="102" height="102">
<path d="M5 5.00164H106.276V106.277H5V5.00164Z" fill="white"/>
</mask>
<g mask="url(#mask0_70_6150)">
<path d="M32.5882 58.9557C32.5542 59.0017 32.5185 59.0493 32.4827 59.0969C29.4493 63.0712 22.0469 66.8209 22.0469 66.8209C25.4291 67.9148 31.1999 70.2542 30.9022 70.7016C30.6028 71.149 25.031 71.2988 25.031 71.2988L25.6605 72.6904H39.5159L40.1454 71.2988C40.1454 71.2988 34.5736 71.149 34.2742 70.7016C33.9765 70.2542 39.7473 67.9148 43.1295 66.8209C43.1295 66.8209 35.7271 63.0712 32.6937 59.0969C32.658 59.0493 32.6222 59.0017 32.5882 58.9557Z" fill="#7C5F8E"/>
<path d="M88.5202 66.8209C88.5202 66.8209 81.1178 63.0712 78.0843 59.0969C78.0486 59.0493 78.0129 59.0034 77.9788 58.9557C77.9448 59.0034 77.9091 59.0493 77.8733 59.0969C74.8399 63.0712 67.4375 66.8209 67.4375 66.8209C70.8197 67.9148 76.5906 70.2542 76.2928 70.7016C75.9934 71.149 70.4216 71.2988 70.4216 71.2988L71.0511 72.6904H84.9066L85.5361 71.2988C85.5361 71.2988 79.9643 71.149 79.6648 70.7016C79.3671 70.2542 85.138 67.9148 88.5202 66.8209Z" fill="#7C5F8E"/>
<path d="M66.0827 66.8209C66.0827 66.8209 58.6803 63.0712 55.6468 59.0969C55.6111 59.0493 55.5754 59.0034 55.5413 58.9557C55.5073 59.0034 55.4716 59.0493 55.4358 59.0969C52.4024 63.0712 45 66.8209 45 66.8209C48.3822 67.9148 54.1531 70.2542 53.8553 70.7016C53.5559 71.149 47.9841 71.2988 47.9841 71.2988L48.6136 72.6904H62.4691L63.0986 71.2988C63.0986 71.2988 57.5268 71.149 57.2273 70.7016C56.9296 70.2542 62.7005 67.9148 66.0827 66.8209Z" fill="#7C5F8E"/>
<path d="M66.7992 45.8667C66.7634 45.8208 66.7277 45.7732 66.6937 45.7255C66.6596 45.7732 66.6239 45.8208 66.5882 45.8667C63.5548 49.8427 56.1523 53.5907 56.1523 53.5907C59.5346 54.6863 65.3054 57.0239 65.0077 57.4714C64.7082 57.9188 59.1364 58.0685 59.1364 58.0685L59.7659 59.4619H73.6214L74.2509 58.0685C74.2509 58.0685 68.6791 57.9188 68.3797 57.4714C68.0819 57.0239 73.8528 54.6863 77.235 53.5907C77.235 53.5907 69.8326 49.8427 66.7992 45.8667Z" fill="#7C5F8E"/>
<path d="M56.1663 32.7681C56.1306 32.7205 56.0949 32.6745 56.0609 32.6269C56.0268 32.6745 55.9911 32.7205 55.9554 32.7681C52.9219 36.7441 45.5195 40.4921 45.5195 40.4921C48.9017 41.586 54.6726 43.9253 54.3749 44.3727C54.0754 44.8202 48.5036 44.9699 48.5036 44.9699L49.1331 46.3633H62.9886L63.6181 44.9699C63.6181 44.9699 58.0463 44.8202 57.7469 44.3727C57.4491 43.9253 63.22 41.586 66.6022 40.4921C66.6022 40.4921 59.1998 36.7441 56.1663 32.7681Z" fill="#7C5F8E"/>
<path d="M44.2562 45.7272C44.2221 45.7749 44.1864 45.8208 44.1507 45.8684C41.1173 49.8427 33.7148 53.5924 33.7148 53.5924C37.0971 54.6863 42.8679 57.0256 42.5702 57.4731C42.2707 57.9205 36.6989 58.0702 36.6989 58.0702L37.3284 59.4619H51.1839L51.8134 58.0702C51.8134 58.0702 46.2416 57.9205 45.9422 57.4731C45.6444 57.0256 51.4153 54.6863 54.7975 53.5924C54.7975 53.5924 47.3951 49.8427 44.3617 45.8684C44.3259 45.8208 44.2902 45.7749 44.2562 45.7272Z" fill="#7C5F8E"/>
<path d="M21.4141 83.8994H89.1484V79.1902H21.4141V83.8994Z" fill="#7C5F8E"/>
<path d="M21.4141 89.291H89.1484V86.9364H21.4141V89.291Z" fill="#7C5F8E"/>
<path d="M21.4141 26.002H89.1484V21.2927H21.4141V26.002Z" fill="#7C5F8E"/>
</g>
</g>
</g>
<defs>
<filter id="filter0_f_70_6150" x="0" y="0" width="111.273" height="111.275" filterUnits="userSpaceOnUse" color-interpolation-filters="sRGB">
<feFlood flood-opacity="0" result="BackgroundImageFix"/>
<feBlend mode="normal" in="SourceGraphic" in2="BackgroundImageFix" result="shape"/>
<feGaussianBlur stdDeviation="2.5" result="effect1_foregroundBlur_70_6150"/>
</filter>
<clipPath id="clip0_70_6150">
<rect width="101.275" height="101.275" fill="white" transform="translate(5 5)"/>
</clipPath>
</defs>
</svg>
