<svg width="227" height="227" viewBox="0 0 227 227" fill="none" xmlns="http://www.w3.org/2000/svg">
<g clip-path="url(#clip0_70_6059)">
<mask id="mask0_70_6059" style="mask-type:luminance" maskUnits="userSpaceOnUse" x="0" y="0" width="227" height="227">
<path d="M0.00390625 0.00201416H226.73V226.729H0.00390625V0.00201416Z" fill="white"/>
</mask>
<g mask="url(#mask0_70_6059)">
<path d="M79.2871 94.681C71.6353 95.4732 64.0102 96.5434 56.427 97.8879L33.2852 101.963L66.6764 132.959L39.4172 167.317L56.427 164.312C63.5989 163.04 70.8012 162.019 78.034 161.227L107.038 127.219L79.2871 94.681Z" fill="#CCAD2C"/>
<path d="M95.0273 183.674C107.749 182.955 120.5 182.974 133.214 183.735L114.772 160.513L95.0273 183.674Z" fill="#CCAD2C"/>
<path d="M134.024 88.009C120.72 87.1673 107.366 87.1483 94.0625 87.9481L114.771 112.24L134.024 88.009Z" fill="#CCAD2C"/>
<path d="M193.456 101.893L170.695 97.886C163.294 96.5834 155.86 95.5322 148.406 94.74L122.613 127.217L149.678 161.298C156.701 162.078 163.713 163.08 170.695 164.31L186.402 167.087L156.13 132.919L193.456 101.893Z" fill="#CCAD2C"/>
<path d="M117.932 42.9995L88.4219 69.1465H139.668L117.932 42.9995Z" fill="#CCAD2C"/>
</g>
</g>
<defs>
<clipPath id="clip0_70_6059">
<rect width="226.725" height="226.725" fill="white"/>
</clipPath>
</defs>
</svg>
