<svg width="128" height="128" viewBox="0 0 128 128" fill="none" xmlns="http://www.w3.org/2000/svg">
<g clip-path="url(#clip0_70_12826)">
<mask id="mask0_70_12826" style="mask-type:luminance" maskUnits="userSpaceOnUse" x="0" y="0" width="128" height="128">
<path d="M0.75 0.143913H127.994V127.388H0.75V0.143913Z" fill="white"/>
</mask>
<g mask="url(#mask0_70_12826)">
<path d="M88.6649 63.7657C88.6649 77.1809 77.7869 88.0567 64.3738 88.0567C50.9586 88.0567 40.0827 77.1809 40.0827 63.7657C40.0827 50.3504 50.9586 39.4746 64.3738 39.4746C77.7869 39.4746 88.6649 50.3504 88.6649 63.7657ZM103.591 54.8051L92.0935 50.406L95.8171 38.6923L83.5647 39.6905L81.8354 27.5172L71.2289 33.7524L64.3738 23.5499L57.5187 33.7524L46.91 27.5172L45.1829 39.6905L32.9284 38.6923L36.6541 50.406L25.1562 54.8051L33.6038 63.7657L25.1562 72.7263L36.6541 77.1253L32.9284 88.8391L45.1829 87.8408L46.91 100.014L57.5187 93.7789L64.3738 103.981L71.2289 93.7789L81.8354 100.014L83.5647 87.8408L95.8171 88.8391L92.0935 77.1253L103.591 72.7263L95.1416 63.7657L103.591 54.8051Z" fill="#55A044"/>
</g>
</g>
<defs>
<clipPath id="clip0_70_12826">
<rect width="127.243" height="127.243" fill="white" transform="translate(0.757812 0.142578)"/>
</clipPath>
</defs>
</svg>
