<svg width="128" height="128" viewBox="0 0 128 128" fill="none" xmlns="http://www.w3.org/2000/svg">
<g clip-path="url(#clip0_70_12801)">
<mask id="mask0_70_12801" style="mask-type:luminance" maskUnits="userSpaceOnUse" x="0" y="0" width="128" height="128">
<path d="M0.261719 0.143913H127.506V127.388H0.261719V0.143913Z" fill="white"/>
</mask>
<g mask="url(#mask0_70_12801)">
<path d="M34.9239 67.9321C34.8812 67.9898 34.8363 68.0496 34.7914 68.1095C30.9801 73.1028 21.6797 77.8139 21.6797 77.8139C25.9291 79.1884 33.1797 82.1275 32.8056 82.6897C32.4294 83.2519 25.4289 83.44 25.4289 83.44L26.2198 85.1885H43.628L44.4189 83.44C44.4189 83.44 37.4184 83.2519 37.0422 82.6897C36.6682 82.1275 43.9187 79.1884 48.1681 77.8139C48.1681 77.8139 38.8677 73.1028 35.0564 68.1095C35.0116 68.0496 34.9667 67.9898 34.9239 67.9321Z" fill="#7C5F8E"/>
<path d="M105.199 77.8139C105.199 77.8139 95.8989 73.1028 92.0877 68.1095C92.0428 68.0496 91.9979 67.9919 91.9552 67.9321C91.9124 67.9919 91.8675 68.0496 91.8226 68.1095C88.0114 73.1028 78.7109 77.8139 78.7109 77.8139C82.9604 79.1884 90.2109 82.1275 89.8369 82.6897C89.4607 83.2519 82.4602 83.44 82.4602 83.44L83.2511 85.1885H100.659L101.45 83.44C101.45 83.44 94.4497 83.2519 94.0735 82.6897C93.6994 82.1275 100.95 79.1884 105.199 77.8139Z" fill="#7C5F8E"/>
<path d="M77.0119 77.8139C77.0119 77.8139 67.7114 73.1028 63.9002 68.1095C63.8553 68.0496 63.8104 67.9919 63.7677 67.9321C63.7249 67.9919 63.68 68.0496 63.6351 68.1095C59.8239 73.1028 50.5234 77.8139 50.5234 77.8139C54.7729 79.1884 62.0234 82.1275 61.6494 82.6897C61.2732 83.2519 54.2727 83.44 54.2727 83.44L55.0636 85.1885H72.4718L73.2626 83.44C73.2626 83.44 66.2622 83.2519 65.886 82.6897C65.5119 82.1275 72.7625 79.1884 77.0119 77.8139Z" fill="#7C5F8E"/>
<path d="M77.908 51.4872C77.8631 51.4295 77.8182 51.3697 77.7755 51.3098C77.7327 51.3697 77.6878 51.4295 77.643 51.4872C73.8317 56.4827 64.5312 61.1917 64.5312 61.1917C68.7807 62.5683 76.0312 65.5053 75.6572 66.0674C75.281 66.6296 68.2805 66.8177 68.2805 66.8177L69.0714 68.5684H86.4796L87.2705 66.8177C87.2705 66.8177 80.27 66.6296 79.8938 66.0674C79.5197 65.5053 86.7703 62.5683 91.0197 61.1917C91.0197 61.1917 81.7192 56.4827 77.908 51.4872Z" fill="#7C5F8E"/>
<path d="M64.5486 35.0292C64.5037 34.9694 64.4589 34.9117 64.4161 34.8518C64.3734 34.9117 64.3285 34.9694 64.2836 35.0292C60.4723 40.0247 51.1719 44.7337 51.1719 44.7337C55.4213 46.1081 62.6719 49.0472 62.2978 49.6094C61.9216 50.1716 54.9211 50.3597 54.9211 50.3597L55.712 52.1104H73.1202L73.9111 50.3597C73.9111 50.3597 66.9106 50.1716 66.5344 49.6094C66.1603 49.0472 73.4109 46.1081 77.6603 44.7337C77.6603 44.7337 68.3599 40.0247 64.5486 35.0292Z" fill="#7C5F8E"/>
<path d="M49.588 51.312C49.5452 51.3718 49.5003 51.4295 49.4555 51.4894C45.6442 56.4827 36.3438 61.1938 36.3438 61.1938C40.5932 62.5683 47.8437 65.5074 47.4697 66.0696C47.0935 66.6317 40.093 66.8198 40.093 66.8198L40.8839 68.5684H58.2921L59.083 66.8198C59.083 66.8198 52.0825 66.6317 51.7063 66.0696C51.3322 65.5074 58.5828 62.5683 62.8322 61.1938C62.8322 61.1938 53.5317 56.4827 49.7205 51.4894C49.6756 51.4295 49.6307 51.3718 49.588 51.312Z" fill="#7C5F8E"/>
<path d="M20.8867 99.2715H105.989V93.3548H20.8867V99.2715Z" fill="#7C5F8E"/>
<path d="M20.8867 106.046H105.989V103.088H20.8867V106.046Z" fill="#7C5F8E"/>
<path d="M20.8867 26.5293H105.989V20.6126H20.8867V26.5293Z" fill="#7C5F8E"/>
</g>
</g>
<defs>
<clipPath id="clip0_70_12801">
<rect width="127.243" height="127.243" fill="white" transform="translate(0.246094 0.142578)"/>
</clipPath>
</defs>
</svg>
