<svg width="128" height="128" viewBox="0 0 128 128" fill="none" xmlns="http://www.w3.org/2000/svg">
<g clip-path="url(#clip0_70_12759)">
<mask id="mask0_70_12759" style="mask-type:luminance" maskUnits="userSpaceOnUse" x="0" y="0" width="128" height="128">
<path d="M0.265625 0.143913H127.509V127.388H0.265625V0.143913Z" fill="white"/>
</mask>
<g mask="url(#mask0_70_12759)">
<path d="M44.7626 53.2798C40.4683 53.7244 36.1889 54.3251 31.933 55.0796L18.9453 57.3668L37.6852 74.7621L22.3868 94.0449L31.933 92.3584C35.958 91.6445 40.0001 91.0716 44.0593 90.627L60.3367 71.5408L44.7626 53.2798Z" fill="#CCAD2C"/>
<path d="M53.5977 103.224C60.7371 102.82 67.8936 102.83 75.0287 103.258L64.6787 90.2252L53.5977 103.224Z" fill="#CCAD2C"/>
<path d="M75.4818 49.5338C68.0154 49.0614 60.5211 49.0507 53.0547 49.4995L64.6765 63.1328L75.4818 49.5338Z" fill="#CCAD2C"/>
<path d="M108.836 57.3257L96.0625 55.077C91.9092 54.346 87.7368 53.756 83.5536 53.3114L69.0781 71.5382L84.2675 90.665C88.2092 91.1032 92.1444 91.6654 96.0625 92.3558L104.878 93.9141L87.8885 74.7381L108.836 57.3257Z" fill="#CCAD2C"/>
<path d="M66.4523 24.273L49.8906 38.9473H78.6513L66.4523 24.273Z" fill="#CCAD2C"/>
</g>
</g>
<defs>
<clipPath id="clip0_70_12759">
<rect width="127.243" height="127.243" fill="white" transform="translate(0.261719 0.142578)"/>
</clipPath>
</defs>
</svg>
