<svg width="128" height="128" viewBox="0 0 128 128" fill="none" xmlns="http://www.w3.org/2000/svg">
<g clip-path="url(#clip0_70_12787)">
<mask id="mask0_70_12787" style="mask-type:luminance" maskUnits="userSpaceOnUse" x="0" y="0" width="128" height="128">
<path d="M0.742188 0.143913H127.986V127.388H0.742188V0.143913Z" fill="white"/>
</mask>
<g mask="url(#mask0_70_12787)">
<path d="M77.1266 65.0676C79.8134 66.2838 82.2973 67.8656 84.5096 69.7595V69.7616L69.2433 85.0258L77.1266 65.0676ZM44.2361 69.7766C46.4442 67.8806 48.9259 66.2988 51.6064 65.0825L59.4833 85.0258L44.2361 69.7766ZM62.4587 62.3892V82.9567L54.8961 63.8064C57.303 63.0326 59.8381 62.5495 62.4587 62.3892ZM73.8347 63.7957L65.9878 83.6685V62.3678C68.711 62.5068 71.3424 62.9963 73.8347 63.7957ZM105.22 49.0488L100.977 53.2918C96.5034 49.192 91.3391 45.8361 85.6767 43.4164L87.6646 38.3846L84.3835 37.0892L82.3892 42.136C77.2356 40.3212 71.7228 39.2631 65.9878 39.0964V34.2591H62.4587V39.1071C56.8263 39.3059 51.4119 40.3597 46.3438 42.1488L44.3452 37.0892L41.064 38.3846L43.0562 43.4313C37.4003 45.8553 32.2381 49.2112 27.7685 53.3111L23.5084 49.0488L21.0117 51.5433L62.4587 92.9903V93.2725H65.9878L87.0555 72.2048L103.502 55.7585L107.715 51.5433L105.22 49.0488Z" fill="#E97469"/>
</g>
</g>
<defs>
<clipPath id="clip0_70_12787">
<rect width="127.243" height="127.243" fill="white" transform="translate(0.738281 0.142578)"/>
</clipPath>
</defs>
</svg>
