<svg width="128" height="128" viewBox="0 0 128 128" fill="none" xmlns="http://www.w3.org/2000/svg">
<g clip-path="url(#clip0_70_12794)">
<mask id="mask0_70_12794" style="mask-type:luminance" maskUnits="userSpaceOnUse" x="0" y="0" width="128" height="128">
<path d="M0.503906 0.143913H127.748V127.388H0.503906V0.143913Z" fill="white"/>
</mask>
<g mask="url(#mask0_70_12794)">
<path d="M79.7883 97.1013C76.1288 99.3714 71.8922 100.374 67.6577 99.2581C61.8885 97.7447 53.8342 90.1714 52.0942 83.9319C51.1986 80.7192 50.1897 77.1516 50.1897 77.1516C50.1897 77.1516 41.7827 78.1905 36.5585 72.3122C31.4177 66.5259 30.567 60.28 31.7362 55.105C36.8129 57.9329 42.6206 59.4207 48.4326 59.3459C49.2919 59.333 50.1939 59.2775 50.925 58.8328C51.6624 58.3946 52.169 57.4456 51.842 56.6568C51.4572 55.7142 50.2517 55.5068 49.2556 55.3722C43.8176 54.6539 38.6341 52.2471 34.5407 48.5961C35.1093 47.7582 35.7228 47.0122 36.3597 46.3645C37.187 45.5245 38.0698 44.7144 39.0167 43.9406C43.4457 48.6453 49.1936 52.1103 55.4395 53.7626C56.2753 53.9849 57.1538 54.1751 57.9938 53.9827C58.8318 53.7925 59.6162 53.1064 59.6483 52.2407C59.6825 51.1719 58.6458 50.4195 57.7438 49.8402C53.3554 46.9994 49.5014 43.3421 46.4361 39.1204L46.4425 39.114C49.262 37.684 52.3657 36.4741 55.7622 35.5144C57.6048 38.8746 59.9155 41.9697 62.6302 44.6802C63.1026 45.1461 63.6006 45.625 64.2205 45.8793C64.8404 46.1337 65.5992 46.1337 66.1208 45.7169C66.7856 45.1803 66.8198 44.1351 66.4863 43.3527C66.14 42.5704 65.5116 41.9526 64.9751 41.2879C63.3292 39.2508 62.487 36.581 62.628 33.9732C64.849 33.597 67.1703 33.3212 69.5836 33.1481C70.7678 36.0915 72.4073 38.8468 74.4337 41.2964C74.9146 41.88 75.4576 42.4742 76.1886 42.6922C76.9133 42.9145 77.8559 42.6046 78.0526 41.8671C78.2514 41.119 77.6336 40.4243 77.1163 39.8429C75.417 37.9341 74.3226 35.4823 74.0254 32.9343C76.5071 32.8766 79.085 32.9258 81.7484 33.084C81.9515 33.7509 82.1481 34.4221 82.3512 35.0869C82.5735 35.8329 82.8022 36.5853 83.2383 37.2244C83.6636 37.8635 84.3412 38.3851 85.1129 38.4471C86.4488 38.5475 87.539 37.1795 87.633 35.8371C87.695 35.0527 87.5091 34.2938 87.2333 33.5542C90.9056 33.9604 94.7211 34.5653 98.6756 35.3818C97.4636 38.4556 95.9887 42.6324 94.7361 47.7262C94.082 46.884 93.4258 46.0567 92.7717 45.2145C92.2587 44.5519 91.4828 43.8102 90.7047 44.1244C89.9224 44.4322 89.8689 45.5074 90.0314 46.3282C90.5187 48.8334 91.797 51.1719 93.6032 52.9738C93.2462 54.8549 92.9342 56.8406 92.6798 58.9055C92.4639 60.6198 92.3036 62.2401 92.1732 63.7791C90.6171 62.2209 89.1999 60.5343 87.9515 58.7388C87.4834 58.0697 87.026 57.375 86.3505 56.9283C85.6793 56.4773 84.7196 56.3426 84.0804 56.8278C83.2041 57.4969 83.3622 58.8542 83.7149 59.8888C85.0616 63.8881 88.0413 67.2761 91.7756 69.1999C91.5298 73.2869 91.3588 76.7604 90.8094 79.971C86.9084 77.4551 83.6016 74.0265 81.2738 70.0293C80.6711 69.0076 79.9208 67.802 78.7409 67.7678C77.6229 67.7336 76.7465 68.8579 76.6696 69.9716C76.5926 71.0831 77.0992 72.1497 77.6336 73.1266C80.4146 78.1712 84.4588 82.5083 89.2768 85.6612C88.2636 88.1835 86.7823 90.5839 84.9697 92.6616C79.3436 89.7717 74.4722 85.4154 70.9837 80.1292C70.5776 79.5093 70.1693 78.8616 69.5793 78.417C68.9766 77.9703 68.1365 77.7672 67.4888 78.1349C66.8924 78.479 66.6146 79.2122 66.6445 79.9026C66.668 80.5888 66.9566 81.2407 67.2473 81.8563C70.0966 87.865 74.4444 93.1511 79.7883 97.1013Z" fill="#526C4E"/>
</g>
</g>
<defs>
<clipPath id="clip0_70_12794">
<rect width="127.243" height="127.243" fill="white" transform="translate(0.492188 0.142578)"/>
</clipPath>
</defs>
</svg>
