<svg width="128" height="128" viewBox="0 0 128 128" fill="none" xmlns="http://www.w3.org/2000/svg">
<path d="M70.3547 63.4483L74.3989 66.3874L80.5273 70.8399H72.9518H67.9521L66.4088 75.5938L64.0682 82.7995L61.7254 75.5938L60.1821 70.8399H55.1824H47.607L53.7353 66.3874L57.7795 63.4483L56.2341 58.6922L53.8935 51.4887L60.0218 55.9412L64.0682 58.8803L68.1124 55.9412L74.2408 51.4887L71.9002 58.6922L70.3547 63.4483ZM102.149 49.6077L79.9352 55.3577L87.329 32.6014L67.5075 47.0041V23.3308H60.6267V47.0041L40.8053 32.6014L48.2803 55.6099L25.0922 49.6077L23.3672 56.2683L46.5083 62.2598L26.4282 76.8507H50.5846L35.9274 95.4259L41.3311 99.6882L56.3987 80.5935L64.0682 104.196L71.804 80.384L84.8088 100.064L90.5502 96.2703L77.7164 76.8507H101.706L81.3909 62.0888L103.874 56.2683L102.149 49.6077Z" fill="#8BAB4F"/>
</svg>
