<svg width="128" height="128" viewBox="0 0 128 128" fill="none" xmlns="http://www.w3.org/2000/svg">
<g clip-path="url(#clip0_70_12748)">
<mask id="mask0_70_12748" style="mask-type:luminance" maskUnits="userSpaceOnUse" x="0" y="0" width="128" height="128">
<path d="M0.753906 0.143913H127.998V127.388H0.753906V0.143913Z" fill="white"/>
</mask>
<g mask="url(#mask0_70_12748)">
<path d="M64.043 63.8691C63.5514 72.3872 60.0629 80.7664 53.5733 87.2581C47.0281 93.8012 38.5656 97.3025 29.9727 97.7471C30.4087 89.1456 33.8972 80.6916 40.453 74.1357C46.7225 67.8685 54.7297 64.4356 62.94 63.7644C54.7297 63.0932 46.7225 59.6603 40.453 53.3909C33.8972 46.8372 30.4087 38.3832 29.9727 29.7817C38.5656 30.2263 47.0281 33.7276 53.5733 40.2706C60.0629 46.7623 63.5514 55.1415 64.043 63.6596C64.0494 63.6596 64.0558 63.6575 64.0622 63.6575C64.0622 63.6938 64.0558 63.728 64.0537 63.7644C64.0558 63.8007 64.0622 63.8349 64.0622 63.8713C64.0558 63.8713 64.0494 63.8691 64.043 63.8691Z" fill="#EF5C71"/>
<path d="M65.7941 63.7644C74.0044 64.4356 82.0138 67.8685 88.2832 74.1379C94.8369 80.6916 98.3275 89.1456 98.7614 97.7471C90.1707 97.3025 81.706 93.8012 75.1608 87.2581C68.6712 80.7664 65.1827 72.3872 64.6911 63.8691C64.6847 63.8691 64.6783 63.8713 64.6719 63.8713C64.674 63.8349 64.6804 63.8007 64.6826 63.7644C64.6804 63.728 64.674 63.6938 64.6719 63.6575C64.6783 63.6575 64.6847 63.6596 64.6911 63.6596C65.1827 55.1415 68.6712 46.7623 75.1608 40.2706C81.706 33.7276 90.1707 30.2263 98.7614 29.7817C98.3275 38.3832 94.8369 46.8372 88.2832 53.3909C82.0138 59.6603 74.0044 63.0932 65.7941 63.7644Z" fill="#EF5C71"/>
</g>
</g>
<defs>
<clipPath id="clip0_70_12748">
<rect width="127.243" height="127.243" fill="white" transform="translate(0.753906 0.142578)"/>
</clipPath>
</defs>
</svg>
