<svg width="1096" height="478" viewBox="0 0 1096 478" fill="none" xmlns="http://www.w3.org/2000/svg">
<path d="M143.479 0.55459C160.447 0.55459 176.034 3.11949 191.818 9.2358V35.674L188.858 37.8443C176.823 32.9118 165.182 29.5577 152.555 29.5577C121.776 29.5577 103.23 49.8796 103.23 80.0665C103.23 111.24 122.96 131.759 153.936 131.759C167.155 131.759 178.993 128.01 190.436 121.697L193.396 123.867V151.686C179.388 157.211 165.774 160.17 150.779 160.17C100.665 160.17 66.1375 129.194 66.1375 78.8827C66.1375 31.9253 96.3244 0.55459 143.479 0.55459ZM244.728 3.11949V100.586C244.728 119.329 254.79 132.746 273.534 132.746C292.474 132.746 302.537 119.329 302.537 100.586V3.11949H339.037V99.2046C339.037 138.467 312.599 160.368 273.336 159.973C234.271 159.578 208.03 137.875 208.03 99.0073V3.11949H244.728ZM493.885 158H453.044L423.055 112.226C418.714 105.715 412.795 101.178 404.903 101.178H394.841V158H359.327V3.11949H423.647C456.004 3.11949 482.047 18.3116 482.047 50.0769C482.047 72.9637 468.434 88.7477 447.125 95.2586C456.004 101.572 462.909 109.267 468.631 118.343L493.885 158ZM394.841 74.9367L420.095 75.134C435.09 75.134 447.323 68.0312 446.731 53.2337C445.942 39.0281 434.301 32.3199 420.095 32.3199H394.841V74.9367ZM592.921 86.7747L575.558 27.5847L558.393 86.7747H592.921ZM549.317 3.11949H601.602L651.716 158H613.637L601.405 115.975H549.909L537.479 158H499.401L549.317 3.11949ZM641.205 3.11949H759.191V32.3199H718.547V158H681.849V32.3199H641.205V3.11949ZM773.002 3.11949H872.441V32.3199H809.699V63.296H866.325V91.7072H809.699V128.8H874.217V158H773.002V3.11949ZM888.029 3.11949H946.233C992.795 3.11949 1023.38 33.5037 1023.57 80.0665C1023.77 127.024 993.19 158 946.233 158H888.029V3.11949ZM924.727 128.8H941.497C969.711 128.8 986.482 108.675 986.482 80.4611C986.482 52.0499 969.514 32.3199 940.906 32.3199H924.727V128.8ZM206.702 318H165.861L135.871 272.226C131.531 265.715 125.612 261.178 117.72 261.178H107.658V318H72.1436V163.119H136.463C168.821 163.119 194.864 178.312 194.864 210.077C194.864 232.964 181.25 248.748 159.942 255.259C168.821 261.572 175.726 269.267 181.448 278.343L206.702 318ZM107.658 234.937L132.912 235.134C147.907 235.134 160.139 228.031 159.547 213.234C158.758 199.028 147.118 192.32 132.912 192.32H107.658V234.937ZM285.339 160.752C331.901 160.752 360.51 193.504 360.51 240.264C360.51 287.024 332.099 319.578 285.536 319.578C238.776 319.578 209.97 287.024 209.97 240.264C209.97 193.504 238.578 160.752 285.339 160.752ZM285.141 189.952C257.717 189.952 247.26 212.642 247.26 240.264C247.26 267.886 257.717 290.378 285.141 290.378C312.763 290.378 323.22 267.886 323.22 240.264C323.22 212.642 312.763 189.952 285.141 189.952ZM456.41 246.775L439.048 187.585L421.882 246.775H456.41ZM412.807 163.119H465.091L515.205 318H477.127L464.894 275.975H413.399L400.969 318H362.89L412.807 163.119ZM639.489 273.213C639.489 307.346 610.289 319.776 576.353 319.776C558.793 319.776 542.615 317.013 526.436 310.503V283.472L529.198 281.105C544.785 287.813 560.372 290.181 577.34 290.181C590.559 290.181 602.791 286.827 602.791 273.607C602.791 266.11 597.859 261.375 590.756 259.007L556.228 246.775C537.288 240.066 523.279 227.834 523.279 207.512C523.279 175.549 549.126 161.146 581.286 161.146C597.661 161.146 612.459 163.909 628.243 167.855V194.687L625.678 197.055C612.064 193.504 599.437 189.952 585.232 189.952C572.012 189.952 559.385 192.714 559.385 205.934C559.385 214.417 565.896 219.153 573.591 221.718L610.486 234.937C628.44 241.25 639.489 254.272 639.489 273.213ZM640.724 163.119H758.709V192.32H718.065V318H681.367V192.32H640.724V163.119ZM772.52 163.119H871.959V192.32H809.218V223.296H865.843V251.707H809.218V288.8H873.735V318H772.52V163.119ZM887.547 163.119H945.751C992.314 163.119 1022.9 193.504 1023.09 240.066C1023.29 287.024 992.708 318 945.751 318H887.547V163.119ZM924.245 288.8H941.016C969.23 288.8 986 268.675 986 240.461C986 212.05 969.032 192.32 940.424 192.32H924.245V288.8ZM0.37186 323.119H58.5754C105.138 323.119 135.72 353.504 135.917 400.066C136.114 447.024 105.533 478 58.5754 478H0.37186V323.119ZM37.0697 448.8H53.8402C82.0541 448.8 98.8246 428.675 98.8246 400.461C98.8246 372.05 81.8568 352.32 53.2483 352.32H37.0697V448.8ZM152.778 323.119H252.218V352.32H189.476V383.296H246.101V411.707H189.476V448.8H253.993V478H152.778V323.119ZM267.806 323.119H304.504V448.8H368.626V478H267.806V323.119ZM382.448 323.119H419.146V478H382.448V323.119ZM535.129 323.119H567.289L519.345 478H480.871L432.927 323.119H470.612L503.561 433.607L535.129 323.119ZM580.904 323.119H680.343V352.32H617.602V383.296H674.227V411.707H617.602V448.8H682.119V478H580.904V323.119ZM830.49 478H789.649L759.659 432.226C755.319 425.715 749.4 421.178 741.508 421.178H731.445V478H695.931V323.119H760.251C792.608 323.119 818.652 338.312 818.652 370.077C818.652 392.964 805.038 408.748 783.73 415.259C792.608 421.572 799.514 429.267 805.236 438.343L830.49 478ZM731.445 394.937L756.7 395.134C771.695 395.134 783.927 388.031 783.335 373.234C782.546 359.028 770.905 352.32 756.7 352.32H731.445V394.937ZM844.292 323.119H943.731V352.32H880.99V383.296H937.615V411.707H880.99V448.8H945.507V478H844.292V323.119ZM959.319 323.119H1017.52C1064.09 323.119 1094.67 353.504 1094.86 400.066C1095.06 447.024 1064.48 478 1017.52 478H959.319V323.119ZM996.017 448.8H1012.79C1041 448.8 1057.77 428.675 1057.77 400.461C1057.77 372.05 1040.8 352.32 1012.2 352.32H996.017V448.8Z" fill="#0D1616"/>
</svg>
