<svg width="215" height="452" viewBox="0 0 215 452" fill="none" xmlns="http://www.w3.org/2000/svg">
<path d="M65.5865 5.08985L65.3196 49.6318H55.906V38.0123H53.8721C53.6112 26.2772 44.0196 16.8458 32.2222 16.8458C20.4278 16.8458 10.8333 26.2772 10.5754 38.0123H7.8328V49.6318H-1.58081L-1.84766 5.08985H65.5865Z" fill="white"/>
<path d="M75.9805 5.08985L76.2473 49.6318H85.6609V38.0123H87.6949C87.9558 26.2772 97.5473 16.8458 109.345 16.8458C121.139 16.8458 130.734 26.2772 130.992 38.0123H133.734V49.6318H143.148L143.415 5.08985H75.9805Z" fill="white"/>
<path d="M221.258 5.08985L220.992 49.6318H211.578V38.0123H209.544C209.283 26.2772 199.692 16.8458 187.894 16.8458C176.1 16.8458 166.505 26.2772 166.247 38.0123H163.505V49.6318H154.091L153.824 5.08985H221.258Z" fill="white"/>
<path d="M-40.7734 55.3662L-40.5066 99.9082H-31.093V88.2887H-29.059C-28.7981 76.5535 -19.2066 67.1221 -7.40919 67.1221C4.38526 67.1221 13.9797 76.5535 14.2377 88.2887H16.9802V99.9082H26.3939L26.6607 55.3662H-40.7734Z" fill="white"/>
<path d="M104.501 55.3662L104.234 99.9082H94.8201V88.2887H92.7861C92.5252 76.5535 82.9337 67.1221 71.1363 67.1221C59.3418 67.1221 49.7474 76.5535 49.4894 88.2887H46.7469V99.9082H37.3332L37.0664 55.3662H104.501Z" fill="white"/>
<path d="M114.906 55.3662L115.173 99.9082H124.587V88.2887H126.621C126.882 76.5535 136.473 67.1221 148.27 67.1221C160.065 67.1221 169.659 76.5535 169.917 88.2887H172.66V99.9082H182.074L182.34 55.3662H114.906Z" fill="white"/>
<path d="M260.184 55.3662L259.917 99.9082H250.504V88.2887H248.47C248.209 76.5535 238.617 67.1221 226.82 67.1221C215.025 67.1221 205.431 76.5535 205.173 88.2887H202.43V99.9082H193.017L192.75 55.3662H260.184Z" fill="white"/>
<path d="M65.5865 105.646L65.3196 150.188H55.906V138.568H53.8721C53.6112 126.833 44.0196 117.401 32.2222 117.401C20.4278 117.401 10.8333 126.833 10.5754 138.568H7.8328V150.188H-1.58081L-1.84766 105.646H65.5865Z" fill="white"/>
<path d="M75.9805 105.646L76.2473 150.188H85.6609V138.568H87.6949C87.9558 126.833 97.5473 117.401 109.345 117.401C121.139 117.401 130.734 126.833 130.992 138.568H133.734V150.188H143.148L143.415 105.646H75.9805Z" fill="white"/>
<path d="M221.258 105.646L220.992 150.188H211.578V138.568H209.544C209.283 126.833 199.692 117.401 187.894 117.401C176.1 117.401 166.505 126.833 166.247 138.568H163.505V150.188H154.091L153.824 105.646H221.258Z" fill="white"/>
<path d="M-40.7734 155.921L-40.5066 200.463H-31.093V188.843H-29.059C-28.7981 177.108 -19.2066 167.677 -7.40919 167.677C4.38526 167.677 13.9797 177.108 14.2377 188.843H16.9802V200.463H26.3939L26.6607 155.921H-40.7734Z" fill="white"/>
<path d="M104.501 155.921L104.234 200.463H94.8201V188.843H92.7861C92.5252 177.108 82.9337 167.677 71.1363 167.677C59.3418 167.677 49.7474 177.108 49.4894 188.843H46.7469V200.463H37.3332L37.0664 155.921H104.501Z" fill="white"/>
<path d="M114.906 155.921L115.173 200.463H124.587V188.843H126.621C126.882 177.108 136.473 167.677 148.27 167.677C160.065 167.677 169.659 177.108 169.917 188.843H172.66V200.463H182.074L182.34 155.921H114.906Z" fill="white"/>
<path d="M260.184 155.921L259.917 200.463H250.504V188.843H248.47C248.209 177.108 238.617 167.677 226.82 167.677C215.025 167.677 205.431 177.108 205.173 188.843H202.43V200.463H193.017L192.75 155.921H260.184Z" fill="white"/>
<path d="M65.5865 206.197L65.3196 250.739H55.906V239.12H53.8721C53.6112 227.385 44.0196 217.953 32.2222 217.953C20.4278 217.953 10.8333 227.385 10.5754 239.12H7.8328V250.739H-1.58081L-1.84766 206.197H65.5865Z" fill="white"/>
<path d="M75.9805 206.197L76.2473 250.739H85.6609V239.12H87.6949C87.9558 227.385 97.5473 217.953 109.345 217.953C121.139 217.953 130.734 227.385 130.992 239.12H133.734V250.739H143.148L143.415 206.197H75.9805Z" fill="white"/>
<path d="M221.258 206.197L220.992 250.739H211.578V239.12H209.544C209.283 227.385 199.692 217.953 187.894 217.953C176.1 217.953 166.505 227.385 166.247 239.12H163.505V250.739H154.091L153.824 206.197H221.258Z" fill="white"/>
<path d="M-40.7734 256.477L-40.5066 301.019H-31.093V289.399H-29.059C-28.7981 277.664 -19.2066 268.232 -7.40919 268.232C4.38526 268.232 13.9797 277.664 14.2377 289.399H16.9802V301.019H26.3939L26.6607 256.477H-40.7734Z" fill="white"/>
<path d="M104.501 256.477L104.234 301.019H94.8201V289.399H92.7861C92.5252 277.664 82.9337 268.232 71.1363 268.232C59.3418 268.232 49.7474 277.664 49.4894 289.399H46.7469V301.019H37.3332L37.0664 256.477H104.501Z" fill="white"/>
<path d="M114.906 256.477L115.173 301.019H124.587V289.399H126.621C126.882 277.664 136.473 268.232 148.27 268.232C160.065 268.232 169.659 277.664 169.917 289.399H172.66V301.019H182.074L182.34 256.477H114.906Z" fill="white"/>
<path d="M260.184 256.477L259.917 301.019H250.504V289.399H248.47C248.209 277.664 238.617 268.232 226.82 268.232C215.025 268.232 205.431 277.664 205.173 289.399H202.43V301.019H193.017L192.75 256.477H260.184Z" fill="white"/>
<path d="M65.5865 306.753L65.3196 351.295H55.906V339.675H53.8721C53.6112 327.94 44.0196 318.509 32.2222 318.509C20.4278 318.509 10.8333 327.94 10.5754 339.675H7.8328V351.295H-1.58081L-1.84766 306.753H65.5865Z" fill="white"/>
<path d="M75.9805 306.753L76.2473 351.295H85.6609V339.675H87.6949C87.9558 327.94 97.5473 318.509 109.345 318.509C121.139 318.509 130.734 327.94 130.992 339.675H133.734V351.295H143.148L143.415 306.753H75.9805Z" fill="white"/>
<path d="M221.258 306.753L220.992 351.295H211.578V339.675H209.544C209.283 327.94 199.692 318.509 187.894 318.509C176.1 318.509 166.505 327.94 166.247 339.675H163.505V351.295H154.091L153.824 306.753H221.258Z" fill="white"/>
<path d="M-40.7734 357.029L-40.5066 401.571H-31.093V389.952H-29.059C-28.7981 378.217 -19.2066 368.785 -7.40919 368.785C4.38526 368.785 13.9797 378.217 14.2377 389.952H16.9802V401.571H26.3939L26.6607 357.029H-40.7734Z" fill="white"/>
<path d="M104.501 357.029L104.234 401.571H94.8201V389.952H92.7861C92.5252 378.217 82.9337 368.785 71.1363 368.785C59.3418 368.785 49.7474 378.217 49.4894 389.952H46.7469V401.571H37.3332L37.0664 357.029H104.501Z" fill="white"/>
<path d="M114.906 357.029L115.173 401.571H124.587V389.952H126.621C126.882 378.217 136.473 368.785 148.27 368.785C160.065 368.785 169.659 378.217 169.917 389.952H172.66V401.571H182.074L182.34 357.029H114.906Z" fill="white"/>
<path d="M260.184 357.029L259.917 401.571H250.504V389.952H248.47C248.209 378.217 238.617 368.785 226.82 368.785C215.025 368.785 205.431 378.217 205.173 389.952H202.43V401.571H193.017L192.75 357.029H260.184Z" fill="white"/>
<path d="M65.5865 407.309L65.3196 451.851H55.906V440.231H53.8721C53.6112 428.496 44.0196 419.065 32.2222 419.065C20.4278 419.065 10.8333 428.496 10.5754 440.231H7.8328V451.851H-1.58081L-1.84766 407.309H65.5865Z" fill="white"/>
<path d="M75.9805 407.309L76.2473 451.851H85.6609V440.231H87.6949C87.9558 428.496 97.5473 419.065 109.345 419.065C121.139 419.065 130.734 428.496 130.992 440.231H133.734V451.851H143.148L143.415 407.309H75.9805Z" fill="white"/>
<path d="M221.258 407.309L220.992 451.851H211.578V440.231H209.544C209.283 428.496 199.692 419.065 187.894 419.065C176.1 419.065 166.505 428.496 166.247 440.231H163.505V451.851H154.091L153.824 407.309H221.258Z" fill="white"/>
</svg>
